# Blender v2.93.1 OBJ File: ''
# www.blender.org
mtllib rockbud.mtl
o CrystalCrack
v 0.181812 -0.138995 -0.005417
v 0.197158 -0.113455 -0.033548
v 0.192290 -0.086296 -0.026143
v 0.183554 -0.116459 0.011687
v 0.177061 -0.139024 -0.175675
v 0.167760 -0.141579 -0.187085
v 0.161639 -0.135447 -0.186178
v 0.167740 -0.134221 -0.175075
v -0.078502 -0.101919 -0.018787
v -0.103859 -0.104072 0.024429
v -0.068034 -0.263334 0.058500
v -0.008258 -0.268026 -0.025192
v -0.023645 -0.263400 -0.087523
v -0.074426 -0.263400 0.014040
v -0.071840 -0.076221 -0.004746
v -0.055900 -0.051165 -0.087016
v -0.118623 -0.131206 0.020389
v 0.003765 -0.051402 0.027665
v -0.006674 -0.072274 0.052100
v 0.033853 -0.098543 0.050555
v 0.028370 -0.060483 0.026851
v 0.041986 -0.044765 -0.003819
v 0.019325 -0.038476 0.003208
v 0.157904 -0.133825 -0.157339
v 0.171641 -0.137137 -0.161256
v 0.156514 -0.132123 -0.170864
v -0.047334 -0.039851 0.000467
v -0.035940 -0.031342 -0.050789
v 0.028104 -0.045267 -0.070219
v -0.018357 -0.034970 -0.072176
v 0.003467 -0.033282 -0.031536
v -0.072259 -0.103068 -0.165695
v -0.070102 -0.154969 -0.140703
v -0.076019 -0.119892 -0.142230
v -0.066089 -0.095598 -0.158487
v -0.016335 -0.029070 -0.018526
v -0.038304 -0.054396 0.020603
v -0.009413 -0.039375 0.012285
v 0.192594 -0.162390 -0.163358
v 0.164800 -0.184366 -0.116354
v 0.140494 -0.266419 -0.028007
v 0.165808 -0.265985 -0.112913
v 0.143414 -0.093886 0.040359
v 0.160611 -0.122379 0.039342
v 0.167234 -0.099456 0.028310
v 0.058443 -0.271878 -0.036658
v 0.147724 -0.174878 -0.113948
v 0.116292 -0.146377 -0.137919
v 0.170402 -0.140043 0.021802
v -0.140187 -0.099074 -0.032082
v -0.162272 -0.130053 -0.033805
v -0.166462 -0.108102 -0.007173
v -0.141649 -0.092256 -0.014564
v 0.180160 -0.082648 -0.068780
v -0.049218 -0.121656 -0.173546
v -0.025804 -0.178637 -0.163473
v 0.151028 -0.062584 -0.046938
v 0.131916 -0.062779 0.011035
v 0.165976 -0.068371 -0.008692
v -0.050579 -0.093354 -0.164837
v -0.051847 -0.099141 -0.173050
v 0.189977 -0.175285 -0.022978
v 0.170349 -0.178246 0.036653
v -0.127211 -0.095111 -0.003660
v -0.129170 -0.089688 -0.017091
v -0.114297 -0.091878 -0.005014
v -0.105262 -0.091046 -0.019303
v -0.116722 -0.089342 -0.018521
v -0.104655 -0.093023 -0.034191
v -0.115599 -0.103063 -0.046469
v -0.116892 -0.090700 -0.031621
v 0.140244 -0.133769 -0.174929
v 0.144338 -0.133202 -0.162574
v 0.150923 -0.133620 -0.181173
v -0.130267 -0.104576 -0.046045
v -0.128870 -0.091739 -0.030403
v -0.010001 -0.265594 -0.065702
v -0.045436 -0.086713 -0.147548
v 0.001746 -0.267038 -0.165648
v -0.070520 -0.267038 -0.066038
v -0.017008 -0.084740 -0.150238
v 0.019929 -0.095958 -0.178871
v -0.018284 -0.093267 -0.171326
v 0.015390 -0.103910 -0.188321
v -0.010217 -0.126146 -0.179594
v -0.017691 -0.101686 -0.182900
v 0.063977 -0.266617 -0.114898
v 0.083743 -0.187128 0.042921
v 0.076646 -0.066595 0.023910
v 0.110455 -0.088839 -0.089566
v 0.154491 -0.140121 -0.193163
v -0.013266 -0.076402 -0.097257
v 0.011611 -0.231932 -0.021907
v 0.142722 -0.137351 -0.187926
v 0.114652 -0.143709 -0.154752
v 0.121334 -0.154183 -0.193085
v 0.141991 -0.161574 -0.200276
v 0.079776 -0.266030 -0.122703
v 0.063111 -0.066802 0.004960
v 0.069214 -0.056900 -0.048475
v 0.007296 -0.168989 -0.174683
v 0.172257 -0.176497 -0.173354
v -0.133364 -0.137493 -0.067257
v 0.149229 -0.162413 0.057911
v 0.155337 -0.210907 0.023850
v 0.212683 -0.266512 -0.066038
v 0.090360 -0.268367 -0.090918
v 0.064970 -0.102729 -0.195587
v -0.162317 -0.266512 0.000368
v -0.095910 -0.266512 -0.091429
v 0.097305 -0.094576 0.052678
v -0.045142 -0.092528 0.028949
v 0.002066 -0.265934 0.007148
v -0.013465 -0.067915 -0.110641
v 0.135456 -0.115909 -0.098594
v 0.179668 -0.163620 -0.050517
v 0.067854 -0.093491 -0.187738
v 0.019316 -0.068242 -0.100369
v -0.113412 -0.133713 -0.071404
v -0.078018 -0.115220 -0.051987
v 0.067868 -0.269248 -0.029277
vt 0.981000 0.720900
vt 0.972200 0.753100
vt 0.516600 0.525100
vt 0.523400 0.492200
vt 0.971200 0.705300
vt 0.957500 0.754600
vt 0.525400 0.538600
vt 0.536100 0.488300
vt 0.715300 0.988700
vt 0.034300 0.988700
vt 0.045700 0.000000
vt 0.954100 0.000000
vt 0.043900 0.000000
vt 0.956100 0.000000
vt 0.716800 0.994200
vt 0.032900 0.994200
vt 0.019100 0.980500
vt 0.031600 -0.007800
vt 0.705100 0.028300
vt 0.736800 -0.036100
vt 0.782700 -0.014600
vt 0.753400 0.051300
vt 0.972200 0.707300
vt 0.534700 0.488800
vt 0.703100 0.029300
vt 0.753400 0.053200
vt 0.487100 0.461900
vt 0.702600 0.920500
vt 0.046900 0.920500
vt 0.959500 0.754500
vt 0.524400 0.972000
vt 0.524400 0.537100
vt 0.031400 0.284700
vt -0.020700 0.267600
vt -0.010300 0.231900
vt 0.042100 0.246600
vt 0.476600 0.949100
vt 0.039200 0.293000
vt 0.476600 0.511700
vt 0.052700 0.245600
vt 0.487500 0.463400
vt 0.715300 0.988700
vt 0.034300 0.988700
vt 0.045700 0.000000
vt 0.954100 0.000000
vt 0.035800 0.247100
vt 0.719200 0.019500
vt 0.491500 0.475100
vt 0.048500 0.000000
vt 0.951200 0.000000
vt 0.713400 0.988700
vt 0.036400 0.988700
vt 0.752400 0.034700
vt 0.040800 0.294900
vt -0.026900 0.272900
vt -0.013400 0.226600
vt 0.054800 0.245600
vt 0.516600 0.980900
vt 0.723100 0.991300
vt 0.712400 0.931500
vt 0.037500 0.931500
vt 0.026400 0.991300
vt 0.483900 0.965400
vt 0.026700 0.279300
vt 0.483900 0.508100
vt 0.490000 0.470700
vt 0.481200 0.509500
vt 0.727500 0.992600
vt 0.717800 0.941700
vt 0.031900 0.941700
vt 0.022400 0.992600
vt 0.703100 0.029300
vt 0.487100 0.461900
vt 0.753400 0.053200
vt 0.971200 0.705300
vt 0.536100 0.488300
vt 0.957500 0.754600
vt 0.525400 0.970800
vt 0.525400 0.538600
vt 0.040800 0.294900
vt 0.054800 0.245600
vt 0.475600 0.512200
vt 0.475600 0.947100
vt 0.475600 0.512200
vt 0.713900 0.022500
vt 0.035100 0.000000
vt 0.964800 0.000000
vt 0.752900 0.041000
vt 0.977500 0.715800
vt 0.527800 0.490700
vt 0.967300 0.753700
vt 0.519500 0.977600
vt 0.519500 0.529500
vt 0.481200 0.959300
vt 0.029900 0.000000
vt 0.969700 0.000000
vt 0.727500 0.992600
vt 0.022400 0.992600
vt 0.701200 0.910900
vt 0.048800 0.910900
vt 0.525400 0.970800
vt 0.721700 0.991300
vt 0.028000 0.991300
vt 0.037300 0.000000
vt 0.962400 0.000000
vt 0.475600 0.947100
vt -0.026900 0.272900
vt -0.013400 0.226600
vt 0.019100 0.980500
vt 0.031600 -0.007800
vt 0.034300 0.988700
vt 0.019100 0.980500
vt 0.031600 -0.007800
vt 0.713400 0.988700
vt 0.699200 0.907200
vt 0.050700 0.907200
vt 0.036400 0.988700
vt 1.035200 0.728300
vt 1.022500 0.772800
vt 0.497100 1.029600
vt 0.460900 1.012600
vt 1.036100 0.727500
vt 1.023400 0.773800
vt 0.715300 0.988700
vt 0.045700 0.000000
vt 0.954100 0.000000
vt 0.710900 0.928600
vt 0.039000 0.928600
vt 0.715300 0.988700
vt 0.701200 0.910900
vt 0.048800 0.910900
vt 0.034300 0.988700
vt 0.736300 -0.037100
vt 0.784200 -0.015600
vt 0.740700 -0.024400
vt 0.772000 -0.009800
vt 0.029900 0.000000
vt 0.969700 0.000000
vt 0.037300 0.000000
vt 0.962400 0.000000
vt 0.481200 0.991300
vt 0.018700 0.991300
vt 0.000000 0.954300
vt 0.048500 0.000000
vt 1.000000 0.045900
vt 0.951200 1.000000
vt 0.031700 0.000000
vt 0.968300 0.000000
vt 0.726100 0.992600
vt 0.023800 0.992600
vt 0.723100 0.992400
vt 0.730000 0.985400
vt 0.032900 0.994200
vt 0.026300 0.990100
vt 0.038100 -0.003900
vt 0.699200 0.907200
vt 0.050700 0.907200
vt 0.496300 1.037000
vt 0.451200 1.015700
vt 0.473900 0.948900
vt 0.026000 0.948900
vt 0.000000 0.954300
vt 0.048500 0.000000
vt 1.000000 0.045900
vt 0.951200 1.000000
vt 0.483900 0.992600
vt 0.477800 0.956600
vt 0.022100 0.956600
vt 0.015900 0.992600
vt -0.025900 0.272000
vt -0.012900 0.227500
vt 0.476600 0.994200
vt 0.467300 0.942200
vt 0.032500 0.942200
vt 0.023300 0.994200
vt 0.046600 0.000000
vt 0.953100 0.000000
vt 0.714800 0.994200
vt 0.035000 0.994200
vt 0.031700 0.000000
vt 0.968300 0.000000
vt 0.723100 0.991300
vt 0.712400 0.931500
vt 0.037500 0.931500
vt 0.026400 0.991300
vt 0.048500 0.000000
vt 0.951200 0.000000
vt 0.716800 0.939300
vt 0.033100 0.939300
vt 0.717800 0.941700
vt 0.031900 0.941700
vt -0.017600 0.265100
vt -0.008700 0.234900
vt 0.014700 0.985000
vt 0.024300 -0.005900
vt 0.005600 0.982800
vt 0.022800 -0.007800
vt 0.014700 0.985000
vt 0.024300 -0.005900
vt 0.045700 0.000000
vt 0.954100 0.000000
vt 0.496300 1.038500
vt 0.449200 1.016300
vt 0.475600 0.988700
vt 0.466100 0.933700
vt 0.033800 0.933700
vt 0.024300 0.988700
vt 0.048500 0.000000
vt 0.951200 0.000000
vt 0.475600 0.988700
vt 0.024300 0.988700
vt 0.497600 1.025100
vt 0.466800 1.010700
vt 0.739300 -0.029300
vt 0.775900 -0.011700
vt 0.716800 0.994200
vt 0.702600 0.920500
vt 0.046900 0.920500
vt 0.701200 0.910900
vt 0.048800 0.910900
vt 1.023400 0.735400
vt 1.014600 0.765500
vt 0.736300 -0.037100
vt 0.784200 -0.015600
vt 0.701200 0.916900
vt 0.048700 0.916900
vt 0.007200 0.977600
vt 0.029600 -0.010700
vt 0.046600 0.000000
vt 0.953100 0.000000
vt 0.043900 0.000000
vt 0.956100 0.000000
vt 0.048500 0.000000
vt 0.951200 0.000000
vt 0.000000 0.970100
vt 0.031700 0.000000
vt 1.000000 0.030300
vt 0.968300 1.000000
vt 0.701200 0.910900
vt 0.048800 0.910900
vt 1.027300 0.732700
vt 1.017600 0.768300
vt 0.496300 1.038500
vt 0.449200 1.016300
vt 0.730000 0.985400
vt 0.035100 0.000000
vt 0.964800 0.000000
vt 0.007200 0.977600
vt 0.029600 -0.010700
vt 0.019100 0.980500
vt 0.031600 -0.007800
vt 0.014100 0.988800
vt 0.035800 -0.004900
vt 0.026300 0.990100
vt 0.038100 -0.003900
vt 1.036100 0.727500
vt 1.023400 0.773800
vt 0.012500 0.987200
vt 0.020600 -0.004900
vt 0.736800 0.990500
vt 0.004700 0.985400
vt 0.019300 -0.006800
vt 0.012500 0.987200
vt 0.020600 -0.004900
vt 0.466100 0.933700
vt 0.033800 0.933700
vt 0.000000 0.964900
vt 0.037300 0.000000
vt 1.000000 0.035200
vt 0.962400 1.000000
vt 0.734900 0.988800
vn 0.9669 -0.0783 0.2426
vn 0.9830 -0.0565 -0.1747
vn 0.8772 0.4709 0.0932
vn 0.8838 0.0471 0.4654
vn 0.7844 0.5448 -0.2964
vn 0.5913 0.2396 -0.7700
vn 0.2582 0.8248 -0.5030
vn 0.3462 0.9261 -0.1496
vn 0.7179 0.6860 0.1184
vn 0.0976 0.6023 0.7923
vn 0.2483 -0.4682 0.8480
vn 0.8738 -0.4714 -0.1191
vn -0.2698 -0.1432 -0.9522
vn -0.8422 -0.1614 0.5144
vn -0.9503 0.2430 0.1946
vn -0.6836 0.4480 -0.5762
vn -0.4774 0.1959 0.8565
vn 0.0630 0.7059 0.7055
vn -0.0886 0.3118 0.9460
vn 0.3741 0.0309 0.9269
vn 0.3952 0.6411 0.6579
vn 0.4423 0.8611 0.2505
vn 0.2791 0.9088 0.3101
vn 0.2080 0.8605 0.4650
vn 0.5011 0.7490 0.4335
vn 0.0757 0.9971 -0.0080
vn -0.5501 0.7539 0.3592
vn -0.3535 0.9238 -0.1471
vn 0.3631 0.8366 -0.4102
vn 0.0895 0.8848 -0.4572
vn 0.2073 0.9777 -0.0325
vn -0.7786 0.1384 -0.6120
vn -0.8266 -0.2628 -0.4977
vn -0.9321 0.2625 0.2495
vn -0.6697 0.7279 -0.1469
vn -0.0305 0.9886 0.1475
vn -0.4636 0.5797 0.6701
vn -0.0092 0.8667 0.4986
vn 0.9865 0.0937 -0.1344
vn 0.7172 0.3781 0.5853
vn 0.3830 -0.3252 0.8646
vn 0.6912 -0.7004 -0.1776
vn 0.3425 0.5166 0.7847
vn 0.6041 0.1514 0.7823
vn 0.6477 0.3910 0.6539
vn -0.6899 -0.3523 0.6323
vn 0.1825 0.6688 0.7206
vn -0.4256 0.7828 0.4538
vn 0.8745 0.0007 0.4849
vn -0.5399 0.6728 -0.5058
vn -0.8663 0.1809 -0.4655
vn -0.8248 0.4772 0.3033
vn -0.4642 0.8712 0.1594
vn 0.6477 0.4600 -0.6073
vn -0.3839 -0.2292 -0.8944
vn -0.4857 -0.2542 -0.8363
vn 0.1513 0.9447 -0.2909
vn 0.1063 0.9464 0.3050
vn 0.5171 0.8141 0.2644
vn -0.2018 0.8741 -0.4418
vn -0.2818 0.4504 -0.8471
vn 0.9831 0.0181 0.1823
vn 0.7709 -0.1703 0.6137
vn -0.3074 0.7245 0.6169
vn -0.1836 0.9812 0.0596
vn -0.0490 0.9117 0.4078
vn 0.2987 0.9542 0.0145
vn 0.0276 0.9982 0.0527
vn 0.2289 0.8682 -0.4403
vn -0.0346 0.6858 -0.7269
vn -0.0014 0.9252 -0.3793
vn -0.3233 0.9342 -0.1506
vn -0.0943 0.9575 0.2724
vn -0.0479 0.9613 -0.2711
vn -0.3642 0.6219 -0.6932
vn -0.2336 0.8888 -0.3943
vn -0.4000 0.9164 -0.0098
vn -0.1021 -0.7410 -0.6637
vn -0.7622 -0.5704 0.3060
vn -0.0953 0.9547 -0.2819
vn -0.0746 0.8614 -0.5024
vn -0.0660 0.8744 -0.4808
vn -0.1431 0.3241 -0.9351
vn -0.1870 -0.1842 -0.9649
vn -0.1636 0.3783 -0.9111
vn -0.5021 -0.6438 -0.5773
vn -0.6815 -0.3817 0.6243
vn -0.6661 0.6837 0.2982
vn -0.4806 0.6121 -0.6279
vn 0.2116 0.4451 -0.8701
vn -0.3521 0.7661 0.5377
vn 0.1217 -0.2539 0.9595
vn -0.2835 0.7669 -0.5756
vn -0.7220 0.6888 -0.0655
vn -0.6518 0.2709 -0.7083
vn 0.0249 -0.1577 -0.9872
vn -0.6018 -0.6248 -0.4974
vn 0.7956 0.3924 0.4614
vn 0.8181 0.4720 -0.3284
vn 0.0452 -0.2438 -0.9687
vn 0.4766 -0.4243 -0.7699
vn -0.5305 0.2260 -0.8169
vn 0.3366 -0.1150 0.9346
vn 0.2983 -0.6224 0.7236
vn 0.7065 -0.6803 -0.1950
vn 0.8095 -0.5808 0.0855
vn 0.4733 0.2016 -0.8575
vn -0.7752 -0.5979 0.2039
vn -0.0619 -0.5569 -0.8283
vn -0.2556 0.3211 0.9119
vn -0.5070 0.1342 0.8514
vn 0.2906 -0.1991 0.9359
vn 0.0664 0.2575 -0.9640
vn 0.2629 0.2315 -0.9366
vn 0.8279 0.0193 -0.5604
vn 0.6471 0.7117 -0.2732
vn 0.3085 0.8503 0.4264
vn 0.0981 0.3675 -0.9248
vn 0.6124 0.5338 -0.5830
vn 0.9759 -0.2046 -0.0758
usemtl MEGAICEMAGIC
s 1
f 1/1/1 2/2/2 3/3/3 4/4/4
f 5/5/5 6/6/6 7/7/7 8/8/8
f 9/9/9 10/10/10 11/11/11 12/12/12
f 13/13/13 14/14/14 15/15/15 16/16/16
f 10/10/10 17/17/17 11/18/11
f 18/19/18 19/20/19 20/21/20 21/22/21
f 21/22/21 22/23/22 23/24/23
f 24/25/24 25/26/25 8/8/8 26/27/26
f 15/15/15 27/28/27 28/29/28 16/16/16
f 29/30/29 30/31/30 31/32/31
f 32/33/32 33/34/33 34/35/34 35/36/35
f 28/37/28 27/38/27 36/39/36
f 37/40/37 18/19/18 38/41/38
f 39/42/39 40/43/40 41/44/41 42/45/42
f 43/46/43 44/47/44 45/48/45
f 46/49/46 41/50/41 47/51/47 48/52/48
f 49/53/49 1/1/1 4/4/4
f 50/54/50 51/55/51 52/56/52 53/57/53
f 2/2/2 54/58/54 3/3/3
f 33/59/33 32/60/32 55/61/55 56/62/56
f 57/63/57 58/64/58 59/65/59
f 32/33/32 35/36/35 60/66/60 61/67/61
f 62/68/62 1/69/1 49/70/49 63/71/63
f 53/57/53 64/72/64 65/73/65
f 66/74/66 67/75/67 68/76/68
f 69/77/69 70/78/70 71/79/71
f 72/80/72 73/81/73 26/27/26 74/82/74
f 75/83/75 50/54/50 76/84/76
f 35/36/35 78/85/77 60/66/60
f 79/86/78 80/87/79 33/59/33 56/62/56
f 81/88/80 82/89/81 83/90/82
f 84/91/83 85/92/84 86/93/85
f 55/94/55 32/33/32 61/67/61
f 58/64/58 43/46/43 45/48/45 59/65/59
f 87/95/86 88/96/87 89/97/88 90/98/89
f 73/81/73 24/25/24 26/27/26
f 25/26/25 5/5/5 8/8/8
f 9/9/9 67/99/67 66/100/66 10/10/10
f 6/6/6 91/101/90 7/7/7
f 92/102/91 34/103/34 80/104/79 93/105/92
f 94/106/93 72/80/72 74/82/74
f 72/80/72 95/107/94 48/108/48 73/81/73
f 40/43/40 47/109/47 41/110/41
f 54/58/54 57/63/57 59/65/59 3/3/3
f 96/111/95 97/112/96 98/113/97
f 30/31/30 28/37/28 36/39/36 31/32/31
f 67/75/67 69/77/69 71/79/71 68/76/68
f 17/114/17 64/115/64 53/116/53 52/117/52
f 22/23/22 29/30/29 31/32/31 23/24/23
f 22/23/22 99/118/98 100/119/99 29/30/29
f 85/92/84 101/120/100 56/121/56 55/94/55
f 82/89/81 84/91/83 86/93/85 83/90/82
f 39/122/39 102/123/101 6/6/6 5/5/5
f 95/124/94 96/111/95 98/125/97 46/126/46
f 92/102/91 78/127/77 35/128/35 34/103/34
f 78/85/77 81/88/80 83/90/82 60/66/60
f 51/129/51 50/130/50 75/131/75 103/132/102
f 24/25/24 47/133/47 40/134/40 25/26/25
f 44/47/44 104/135/103 63/136/63 49/53/49
f 76/84/76 65/73/65 68/76/68 71/79/71
f 105/137/104 106/138/105 62/68/62 63/71/63
f 107/139/106 79/140/78 101/141/100 108/142/107
f 12/143/12 11/144/11 109/145/108 110/146/109
f 64/72/64 66/74/66 68/76/68 65/73/65
f 18/19/18 21/22/21 23/24/23 38/41/38
f 88/147/87 105/148/104 104/149/103 111/150/110
f 112/151/111 15/15/15 14/14/14
f 48/152/48 95/124/94 46/126/46
f 20/153/20 19/154/19 113/155/112
f 47/51/47 24/156/24 73/157/73 48/52/48
f 30/31/30 114/158/113 16/159/16 28/37/28
f 101/141/100 85/160/84 84/161/83 108/142/107
f 42/162/42 41/163/41 46/164/46 98/165/97
f 115/166/114 54/167/54 2/168/2 116/169/115
f 27/38/27 15/170/15 112/171/111 37/40/37
f 114/172/113 30/173/30 29/174/29 100/175/99
f 14/176/14 113/177/112 19/178/19 112/179/111
f 106/180/105 87/181/86 115/166/114 116/169/115
f 117/182/116 82/183/81 81/184/80 118/185/117
f 17/114/17 52/117/52 109/186/108 11/187/11
f 36/39/36 38/41/38 23/24/23 31/32/31
f 44/47/44 49/53/49 4/4/4 45/48/45
f 104/149/103 44/188/44 43/189/43 111/150/110
f 89/97/88 58/190/58 57/191/57 90/98/89
f 58/64/58 89/192/88 111/193/110 43/46/43
f 56/62/56 101/194/100 79/195/78
f 108/142/107 117/196/116 107/197/106
f 118/185/117 92/198/91 93/199/92
f 110/200/109 109/201/108 51/129/51 103/132/102
f 59/65/59 45/48/45 4/4/4 3/3/3
f 91/101/90 97/202/96 96/203/95 94/106/93
f 97/204/96 91/205/90 6/206/6 102/207/101
f 12/208/12 110/209/109 119/210/118 120/211/119
f 54/58/54 115/212/114 90/213/89 57/63/57
f 91/101/90 94/106/93 74/82/74 7/7/7
f 78/85/77 92/214/91 118/215/117 81/88/80
f 99/216/98 22/217/22 21/218/21 20/153/20
f 74/82/74 26/27/26 8/8/8 7/7/7
f 39/42/39 5/219/5 25/220/25 40/43/40
f 1/1/1 62/221/62 116/222/115 2/2/2
f 64/72/64 17/223/17 10/224/10 66/74/66
f 19/178/19 18/225/18 37/226/37 112/179/111
f 102/207/101 39/227/39 42/228/42
f 121/229/120 13/230/13 114/172/113 100/175/99
f 113/231/112 121/232/120 99/216/98 20/153/20
f 85/92/84 55/94/55 61/67/61 86/93/85
f 97/204/96 102/207/101 42/233/42 98/234/97
f 106/235/105 105/236/104 88/237/87 87/238/86
f 27/38/27 37/40/37 38/41/38 36/39/36
f 95/124/94 72/239/72 94/240/93 96/111/95
f 82/89/81 117/241/116 108/242/107 84/91/83
f 70/78/70 119/243/118 103/244/102 75/83/75
f 52/245/52 51/129/51 109/201/108
f 117/182/116 118/185/117 93/246/92 107/247/106
f 120/211/119 9/248/9 12/249/12
f 103/132/102 119/250/118 110/251/109
f 100/175/99 99/252/98 121/253/120
f 16/16/16 114/254/113 13/255/13
f 67/75/67 9/256/9 120/257/119 69/77/69
f 70/78/70 75/83/75 76/84/76 71/79/71
f 63/71/63 104/258/103 105/259/104
f 111/260/110 89/97/88 88/96/87
f 116/169/115 62/261/62 106/262/105
f 90/98/89 115/263/114 87/264/86
f 61/67/61 60/66/60 83/90/82 86/93/85
f 50/54/50 53/57/53 65/73/65 76/84/76
f 119/210/118 70/265/70 69/266/69 120/211/119
f 107/267/106 93/268/92 80/269/79 79/270/78
f 34/271/34 33/59/33 80/87/79
